<svg xmlns="http://www.w3.org/2000/svg" width="1080" height="1920" viewBox="0 0 1080 1920"><defs><linearGradient id="g" y2="1"><stop stop-color="#261824"/><stop offset=".65" stop-color="#5b3528"/><stop offset="1" stop-color="#1a1117"/></linearGradient></defs><rect width="1080" height="1920" fill="url(#g)"/><rect y="1180" width="1080" height="740" fill="#25181a"/><rect x="80" y="250" width="400" height="560" rx="20" fill="#10141a" stroke="#dba85b" stroke-width="8"/><path d="M280 250v560M80 530h400" stroke="#dba85b" stroke-width="6"/><circle cx="250" cy="400" r="80" fill="#f0b65c" opacity=".18"/><rect x="560" y="300" width="420" height="520" rx="24" fill="#2e1e1d" stroke="#8b5a3b" stroke-width="8"/><rect x="610" y="360" width="320" height="70" rx="16" fill="#151113"/><text x="770" y="408" fill="#f3d095" font-size="42" font-family="sans-serif" text-anchor="middle">DAILY BEAN</text><rect x="90" y="920" width="900" height="180" rx="28" fill="#6b3d2d"/><rect x="130" y="860" width="820" height="90" rx="20" fill="#a36b44"/><circle cx="220" cy="1290" r="130" fill="#3d2924"/><circle cx="540" cy="1330" r="130" fill="#3d2924"/><circle cx="860" cy="1290" r="130" fill="#3d2924"/><circle cx="220" cy="1250" r="94" fill="#6c4637"/><circle cx="540" cy="1290" r="94" fill="#6c4637"/><circle cx="860" cy="1250" r="94" fill="#6c4637"/><g fill="#f2b95d"><circle cx="180" cy="160" r="18"/><circle cx="360" cy="150" r="18"/><circle cx="720" cy="155" r="18"/><circle cx="900" cy="170" r="18"/></g><g stroke="#d9a458" stroke-width="5"><path d="M180 0v140M360 0v130M720 0v135M900 0v150"/></g></svg>