<svg xmlns="http://www.w3.org/2000/svg" width="1080" height="1920" viewBox="0 0 1080 1920"><defs><linearGradient id="sky" y2="1"><stop stop-color="#0e1728"/><stop offset="1" stop-color="#203247"/></linearGradient></defs><rect width="1080" height="1920" fill="url(#sky)"/><circle cx="820" cy="280" r="92" fill="#f0d6a0" opacity=".8"/><path d="M0 980q260-180 520 0t560 0v940H0z" fill="#132333"/><path d="M0 1250q300-100 560 20t520-30v680H0z" fill="#1c3b4b"/><path d="M0 1420q330-90 620 10t460-20" fill="none" stroke="#7998a2" stroke-width="12" opacity=".35"/><path d="M80 1110h920" stroke="#6e6254" stroke-width="20"/><g stroke="#7c6e5e" stroke-width="14"><path d="M150 980v340M330 980v340M510 980v340M690 980v340M870 980v340"/></g><g fill="#e6b85f"><circle cx="150" cy="970" r="24"/><circle cx="510" cy="970" r="24"/><circle cx="870" cy="970" r="24"/></g></svg>