<svg xmlns="http://www.w3.org/2000/svg" width="720" height="1280" viewBox="0 0 720 1280">
<defs><linearGradient id="bg" x2="0" y2="1"><stop stop-color="#071423"/><stop offset=".55" stop-color="#15110e"/><stop offset="1" stop-color="#030609"/></linearGradient><radialGradient id="lamp"><stop stop-color="#ffd98a" stop-opacity=".95"/><stop offset=".25" stop-color="#d98c38" stop-opacity=".55"/><stop offset="1" stop-color="#d98c38" stop-opacity="0"/></radialGradient></defs>
<rect width="720" height="1280" fill="url(#bg)"/><circle cx="360" cy="310" r="275" fill="url(#lamp)"/>
<rect x="50" y="200" width="620" height="420" rx="20" fill="#20140d" stroke="#7d5428" stroke-width="4"/>
<g fill="#bf7d32" opacity=".75"><circle cx="125" cy="275" r="18"/><circle cx="598" cy="275" r="18"/><rect x="112" y="275" width="26" height="160"/><rect x="585" y="275" width="26" height="160"/></g>
<rect x="95" y="430" width="530" height="16" fill="#dba55e" opacity=".42"/><rect x="0" y="640" width="720" height="640" fill="#05080c"/>
<ellipse cx="360" cy="745" rx="310" ry="85" fill="#1b130e"/>
<g fill="#080b0f">
 <circle cx="205" cy="575" r="72"/><path d="M100 950q28-280 104-300q85 42 115 300z"/><path d="M106 570q102-100 205 0q-94-25-205 0z" fill="#11161d"/>
 <circle cx="515" cy="585" r="68"/><path d="M409 950q30-266 104-295q80 37 110 295z"/>
</g>
<g fill="#1c2630" opacity=".92"><path d="M145 600q61-48 117 0l-22 55h-78z"/><path d="M462 607q53-42 104 0l-18 51h-70z"/></g>
<g stroke="#8ba6bd" stroke-width="2" opacity=".2"><path d="M0 0l-120 520"/><path d="M42 0l-120 520"/><path d="M84 0l-120 520"/><path d="M126 0l-120 520"/><path d="M168 0l-120 520"/><path d="M210 0l-120 520"/><path d="M252 0l-120 520"/><path d="M294 0l-120 520"/><path d="M336 0l-120 520"/><path d="M378 0l-120 520"/><path d="M420 0l-120 520"/><path d="M462 0l-120 520"/><path d="M504 0l-120 520"/><path d="M546 0l-120 520"/><path d="M588 0l-120 520"/><path d="M630 0l-120 520"/><path d="M672 0l-120 520"/><path d="M714 0l-120 520"/></g>
<path d="M65 1030h590" stroke="#c58c49" stroke-width="3" opacity=".45"/><circle cx="360" cy="1030" r="9" fill="#e32636"/>
</svg>